<svg width="16" height="16" viewBox="0 0 16 16" fill="none" xmlns="http://www.w3.org/2000/svg">
<path d="M3.5108 6.50969C4.13252 4.62575 5.90297 3.27273 8 3.27273C9.12727 3.27273 10.1455 3.67273 10.9455 4.32727L13.2727 2C11.8545 0.763636 10.0364 0 8 0C4.84671 0 2.13183 1.79887 0.82666 4.43335L3.5108 6.50969Z" fill="#EA4335"/>
<path d="M10.694 12.0082C9.9675 12.4773 9.04428 12.7271 8.00022 12.7271C5.91121 12.7271 4.1463 11.3844 3.51821 9.51172L0.825195 11.5565C2.12875 14.1956 4.84356 15.9998 8.00022 15.9998C9.95545 15.9998 11.8238 15.3047 13.223 13.9995L10.694 12.0082Z" fill="#34A853"/>
<path d="M13.2228 13.9992C14.6861 12.6342 15.6364 10.6019 15.6364 7.99947C15.6364 7.52674 15.5636 7.01765 15.4545 6.54492H8V9.63583H12.2909C12.0792 10.6752 11.5109 11.4803 10.6938 12.0079L13.2228 13.9992Z" fill="#4A90E2"/>
<path d="M3.51799 9.51216C3.35888 9.03779 3.27273 8.52942 3.27273 8.00024C3.27273 7.4791 3.35629 6.97812 3.5108 6.50993L0.82666 4.43359C0.291058 5.5072 0 6.71717 0 8.00024C0 9.27994 0.296521 10.487 0.824975 11.5569L3.51799 9.51216Z" fill="#FBBC05"/>
</svg>
