<svg width="70" height="70" viewBox="0 0 70 70" fill="none" xmlns="http://www.w3.org/2000/svg">
<circle cx="35" cy="35" r="35" fill="#EEE8F2"/>
<path d="M39.9039 24.0321C40.7959 24.9041 40.8659 26.1181 39.9039 27.1841L32.4099 35.0001L39.9039 42.8161C40.8659 43.8821 40.7959 45.0981 39.9039 45.9641C39.0139 46.8361 37.5099 46.7801 36.6739 45.9641C35.8379 45.1521 27.6699 36.5741 27.6699 36.5741C27.4581 36.3698 27.2898 36.125 27.1748 35.8542C27.0598 35.5835 27.0005 35.2923 27.0005 34.9981C27.0005 34.7039 27.0598 34.4128 27.1748 34.142C27.2898 33.8712 27.4581 33.6264 27.6699 33.4221C27.6699 33.4221 35.8379 24.8481 36.6739 24.0321C37.5099 23.2141 39.0139 23.1601 39.9039 24.0321Z" fill="#3E0563"/>
</svg>
