<svg width="70" height="70" viewBox="0 0 70 70" fill="none" xmlns="http://www.w3.org/2000/svg">
<circle cx="35" cy="35" r="35" transform="rotate(180 35 35)" fill="#EEE8F2"/>
<path d="M30.0961 45.9679C29.2041 45.0959 29.1341 43.8819 30.0961 42.8159L37.5901 34.9999L30.0961 27.1839C29.1341 26.1179 29.2041 24.9019 30.0961 24.0359C30.9861 23.1639 32.4901 23.2199 33.3261 24.0359C34.1621 24.8479 42.3301 33.4259 42.3301 33.4259C42.5419 33.6302 42.7102 33.875 42.8252 34.1458C42.9402 34.4165 42.9995 34.7077 42.9995 35.0019C42.9995 35.2961 42.9402 35.5872 42.8252 35.858C42.7102 36.1288 42.5419 36.3736 42.3301 36.5779C42.3301 36.5779 34.1621 45.1519 33.3261 45.9679C32.4901 46.7859 30.9861 46.8399 30.0961 45.9679Z" fill="#3E0563"/>
</svg>
