<svg width="40" height="40" viewBox="0 0 40 40" fill="none" xmlns="http://www.w3.org/2000/svg">
<rect width="40" height="40" rx="8" fill="#EEE8F2"/>
<path d="M28.2392 16.5267L25.0381 8.99558H21.055L20.5825 8H15.56C12.3893 8 9.80981 10.5795 9.80981 13.7501C9.80981 16.9207 12.3893 19.5002 15.56 19.5002H16.9401V27.9834C16.9401 29.6402 17.8836 31.1202 19.4025 31.8458L19.7253 32L25.2746 29.2842L27.4105 22.012L30.1902 19.5399V16.5267H28.2392ZM28.7107 18.8757L26.1105 21.1882L24.0388 28.242L19.7399 30.3458C18.9177 29.83 18.4195 28.952 18.4195 27.9834V18.0207H15.5599C13.2051 18.0207 11.2892 16.1049 11.2892 13.7501C11.2892 11.3953 13.205 9.47947 15.56 9.47947H19.647L20.1194 10.4751H24.0595L27.2604 18.0061H28.7107V18.8757H28.7107Z" fill="#3E0563"/>
<path d="M28.6722 28.9713L27.2527 28.5543L28.4568 24.4543L29.8763 24.8712L28.6722 28.9713Z" fill="#3E0563"/>
</svg>
